<?xml version="1.0" encoding="UTF-8" standalone="no"?>
<!-- Created with Inkscape (http://www.inkscape.org/) -->

<svg
   xmlns:dc="http://purl.org/dc/elements/1.1/"
   xmlns:cc="http://creativecommons.org/ns#"
   xmlns:rdf="http://www.w3.org/1999/02/22-rdf-syntax-ns#"
   xmlns:svg="http://www.w3.org/2000/svg"
   xmlns="http://www.w3.org/2000/svg"
   xmlns:sodipodi="http://sodipodi.sourceforge.net/DTD/sodipodi-0.dtd"
   xmlns:inkscape="http://www.inkscape.org/namespaces/inkscape"
   width="210mm"
   height="297mm"
   viewBox="0 0 210 297"
   version="1.1"
   id="svg8"
   inkscape:version="0.92.4 (5da689c313, 2019-01-14)"
   sodipodi:docname="pause_continue.svg">
  <defs
     id="defs2" />
  <sodipodi:namedview
     id="base"
     pagecolor="#ffffff"
     bordercolor="#666666"
     borderopacity="1.0"
     inkscape:pageopacity="0.0"
     inkscape:pageshadow="2"
     inkscape:zoom="5.6"
     inkscape:cx="319.60152"
     inkscape:cy="675.50585"
     inkscape:document-units="mm"
     inkscape:current-layer="layer1"
     showgrid="false"
     inkscape:window-width="2560"
     inkscape:window-height="1330"
     inkscape:window-x="-12"
     inkscape:window-y="-12"
     inkscape:window-maximized="1" />
  <metadata
     id="metadata5">
    <rdf:RDF>
      <cc:Work
         rdf:about="">
        <dc:format>image/svg+xml</dc:format>
        <dc:type
           rdf:resource="http://purl.org/dc/dcmitype/StillImage" />
        <dc:title></dc:title>
      </cc:Work>
    </rdf:RDF>
  </metadata>
  <g
     inkscape:label="Layer 1"
     inkscape:groupmode="layer"
     id="layer1">
    <rect
       style="fill:#800000;fill-opacity:0.63636361;stroke-width:0.26458332"
       id="rect815"
       width="16.933332"
       height="16.933332"
       x="55.13728"
       y="103.33445"
       ry="0.033408143"
       inkscape:export-xdpi="96"
       inkscape:export-ydpi="96" />
    <rect
       style="fill:#f4d7d7;fill-opacity:0.63636361;stroke-width:0.24568325"
       id="rect817"
       width="14.788319"
       height="14.693825"
       x="56.195614"
       y="104.39278"
       ry="0.030922418"
       inkscape:export-xdpi="96"
       inkscape:export-ydpi="96" />
    <rect
       style="fill:#800000;fill-opacity:0.63636361;stroke-width:0.30697981"
       id="rect823"
       width="1.6536459"
       height="10.725074"
       x="60.098217"
       y="106.64174"
       ry="0.033408143"
       inkscape:export-xdpi="96"
       inkscape:export-ydpi="96" />
    <rect
       style="fill:#800000;fill-opacity:0.63636361;stroke-width:0.30697981"
       id="rect823-2"
       width="1.6536459"
       height="10.725074"
       x="65.224518"
       y="106.71263"
       ry="0.033408143"
       inkscape:export-xdpi="96"
       inkscape:export-ydpi="96" />
    <rect
       style="fill:#ffb380;fill-opacity:0.63636361;stroke-width:0.26458332"
       id="rect840"
       width="1.1339319"
       height="23.670755"
       x="81.359375"
       y="103.23995"
       ry="0.56696594"
       rx="0"
       inkscape:export-xdpi="149.95355"
       inkscape:export-ydpi="149.95355" />
    <rect
       style="fill:#ffb380;fill-opacity:0.63636361;stroke-width:0.24745847"
       id="rect840-2"
       width="1.0855927"
       height="21.627781"
       x="-45.80389"
       y="121.02593"
       ry="0.51803225"
       rx="0"
       transform="matrix(0.45770899,-0.88910206,0.85115006,0.52492244,0,0)"
       inkscape:export-xdpi="149.95355"
       inkscape:export-ydpi="149.95355" />
    <rect
       style="fill:#ffb380;fill-opacity:0.63636361;stroke-width:0.27976561"
       id="rect840-2-0"
       width="1.3509525"
       height="22.213799"
       x="-160.84621"
       y="-52.759956"
       ry="0.53206861"
       rx="0"
       transform="matrix(-0.78983867,-0.61331466,0.84615786,-0.53293234,0,0)"
       inkscape:export-xdpi="149.95355"
       inkscape:export-ydpi="149.95355" />
    <path
       style="fill:#ffb380;fill-opacity:0.63636361;stroke-width:0.17857143"
       d="m 308.74281,479.40766 c -0.20741,-0.0838 -0.54893,-0.37079 -0.75892,-0.63776 l -0.38181,-0.48539 v -43.38663 -43.38663 l 0.60714,-0.60714 c 0.51389,-0.51389 0.73288,-0.60715 1.42576,-0.60715 0.65141,0 0.93724,0.106 1.39943,0.51897 l 0.58083,0.51897 -0.42062,0.74839 c -0.50175,0.89274 -0.44069,1.98061 0.14398,2.56527 l 0.37062,0.37062 v -1.82199 c 0,-1.7981 0.006,-1.82347 0.44973,-1.93487 0.21578,0.47454 -0.34967,-0.49349 0.85098,-0.0362 0.30912,0.0591 65.51107,40.19335 66.05643,40.66023 0.0688,0.0589 -0.29598,0.10701 -0.81051,0.10701 -0.92205,0 -1.92261,0.4545 -3.31843,1.50736 l -0.42613,0.32144 0.96781,0.6191 c 0.5323,0.3405 1.50576,0.93349 2.16326,1.31774 0.65749,0.38426 1.19678,0.73883 1.1984,0.78793 0.002,0.0491 -2.06435,1.38453 -4.59107,2.96761 -2.52672,1.58307 -16.80833,10.57548 -31.7369,19.98312 -31.74518,20.00509 -29.85775,18.83499 -30.38172,18.83499 -0.4083,0 -0.41249,-0.0227 -0.46159,-2.49267 l -0.0495,-2.49266 -1.33929,0.85592 c -1.4479,0.92533 -1.67419,1.14064 -1.87034,1.77959 -0.18816,0.61293 1.39629,2.11978 2.39726,2.27984 0.62682,0.10023 0.69078,0.15382 0.53375,0.44722 -0.38091,0.71175 -1.69232,1.06388 -2.59851,0.69774 z m 34.43661,-25.90364 c 17.01728,-10.71677 31.00324,-19.54548 31.07989,-19.61935 0.1144,-0.11025 -62.1673,-38.76628 -62.45933,-38.76628 -0.0499,0 -0.0908,17.56663 -0.0908,39.03696 0,34.4283 0.0313,39.02497 0.26484,38.93534 0.14566,-0.0559 14.18807,-8.8699 31.20536,-19.58667 z"
       id="path876"
       inkscape:connector-curvature="0"
       transform="scale(0.26458333)"
       sodipodi:nodetypes="cccccssccsccscccsccccccssccscccccccssccc"
       inkscape:export-xdpi="149.95355"
       inkscape:export-ydpi="149.95355" />
    <path
       style="fill:#ffb380;fill-opacity:0.63636361;stroke-width:0.17857143"
       d="m 308.5954,479.30314 c -1.10854,-0.60148 -1.02904,2.83759 -1.02904,-44.51414 v -43.20427 l 0.50852,-0.54437 c 0.90553,-0.96937 2.32811,-0.97592 3.13713,-0.0145 0.376,0.44685 0.51226,0.50645 0.8026,0.35107 0.80704,-0.43192 -0.82598,-1.38305 25.64104,14.9344 8.44643,5.2074 20.62054,12.72128 27.05357,16.69751 6.43304,3.97623 12.45982,7.70087 13.39286,8.27698 2.32829,1.43761 2.87407,1.86749 3.12316,2.45991 0.45463,1.08124 0.19304,1.41771 -2.14102,2.75386 -0.6875,0.39357 -5.83036,3.60472 -11.42857,7.1359 -17.46252,11.0148 -50.24247,31.65183 -52.76786,33.22067 -1.6991,1.05552 -2.53249,1.47482 -2.82326,1.42045 -0.29234,-0.0547 -0.49518,0.049 -0.69616,0.35571 -0.58222,0.88859 -1.81981,1.18796 -2.77297,0.67077 z m 11.47096,-11.23607 c 3.87947,-2.43872 15.41072,-9.69655 25.625,-16.12851 10.21429,-6.43197 20.74108,-13.06043 23.39286,-14.72992 2.65179,-1.66949 4.91882,-3.1241 5.03784,-3.23248 0.23968,-0.21824 -0.42678,-0.63783 -35.48427,-22.3404 -23.93064,-14.81443 -26.69912,-16.51737 -26.85238,-16.51737 -0.14761,0 -0.14302,75.26864 0.005,76.83264 l 0.11405,1.20763 0.55432,-0.32877 c 0.30488,-0.18083 3.72843,-2.3241 7.60789,-4.76282 z"
       id="path878"
       inkscape:connector-curvature="0"
       transform="scale(0.26458333)"
       inkscape:export-xdpi="149.95355"
       inkscape:export-ydpi="149.95355" />
    <path
       style="fill:#ffb380;fill-opacity:0.63636361;stroke-width:0.17857143"
       d="m 308.52719,479.24168 c -0.30636,-0.18682 -0.64788,-0.60029 -0.75892,-0.91884 -0.30311,-0.86949 -0.27651,-86.57909 0.027,-86.95864 0.46403,-0.58033 1.27081,-1.06724 1.76834,-1.06724 0.64396,0 0.66203,0.001 1.56163,0.26011 l 0.68404,0.21176 1.01777,0.49252 c 0.68685,0.17239 8.42804,4.9084 51.34647,31.41344 16.82539,10.39082 16.74339,10.33765 17.04391,11.05238 0.41938,0.99743 0.11221,1.45227 -1.68677,2.49763 -0.54018,0.31389 -15.50283,9.71166 -33.25033,20.88393 -17.74751,11.17228 -32.65312,20.51814 -33.12358,20.76859 -0.47047,0.25045 -0.40179,0.58036 -1.6541,1.03572 -1.84194,0.66976 0.0874,-0.14768 0,0 -0.22068,0.41235 -1.37969,0.67 -2.0109,0.66897 -0.22413,-3.6e-4 -0.65818,-0.15352 -0.96455,-0.34033 z m 17.69989,-15.04922 c 7.26786,-4.57023 20.00446,-12.59006 28.30357,-17.82183 8.29911,-5.23178 16.11384,-10.15798 17.36607,-10.94712 1.25223,-0.78914 2.27679,-1.49591 2.27679,-1.57061 0,-0.16837 -3.45932,-2.347 -20.44643,-12.87689 -31.34865,-19.43224 -41.77142,-25.85762 -41.94429,-25.85762 -0.14634,0 -0.13884,74.68205 0.008,76.56444 l -1.09053,6.11801 1.7591,-4.97086 c 0.30456,-0.1804 6.50017,-4.06729 13.76803,-8.63752 z"
       id="path880"
       inkscape:connector-curvature="0"
       transform="scale(0.26458333)"
       sodipodi:nodetypes="cccscccscsscscccccsssssccccc"
       inkscape:export-xdpi="149.95355"
       inkscape:export-ydpi="149.95355" />
    <path
       id="path882"
       transform="scale(0.26458333)"
       style="fill:none;fill-opacity:0.63636361;stroke-width:0.17857143"
       d="m 309.58008,390.33008 c -0.63172,0.0349 -1.2604,0.38085 -1.78711,1.0332 -0.32809,0.40633 -0.23925,86.70345 0.0898,87.2793 0.12524,0.21914 0.44723,0.51688 0.71485,0.66211 0.26762,0.14523 0.6704,0.26748 0.89453,0.27148 0.62269,0.0109 1.59373,-0.45502 1.8164,-0.87109 0.1102,-0.2059 0.37617,-0.37305 0.59571,-0.37305 0.2183,0 0.76725,-0.19611 1.2207,-0.4375 0.78337,-0.41702 7.88008,-4.86868 46.40625,-29.11328 15.50161,-9.7552 17.93794,-11.28404 20.60547,-12.93359 1.20101,-0.74268 1.46864,-1.31046 1.03125,-2.18555 -0.36696,-0.73419 -0.0677,-0.54414 -22.61914,-14.4707 -38.40196,-23.71495 -45.01387,-27.75325 -45.73242,-27.9336 -0.21765,-0.0546 -0.55289,-0.0136 -0.7461,0.0899 -0.28019,0.14995 -0.41871,0.11321 -0.68554,-0.18164 -0.53718,-0.59357 -1.17297,-0.87085 -1.80469,-0.83594 z m 2.41211,5.00195 c 0.22281,0.0239 0.70718,0.30895 1.88476,1.02149 8.2508,4.99239 59.10373,36.55548 60.01563,37.25 0.18925,0.14415 0.30988,0.29559 0.26758,0.33789 -0.16409,0.16408 -38.6571,24.43181 -55.16602,34.77929 -3.68304,2.30846 -6.78291,4.2471 -6.89062,4.3086 -0.13568,0.0775 -0.2317,-0.63497 -0.3125,-2.32032 -0.14404,-3.00464 -0.15349,-74.63803 -0.01,-75.17382 0.0368,-0.13716 0.0772,-0.21747 0.21094,-0.20313 z"
       inkscape:export-xdpi="149.95355"
       inkscape:export-ydpi="149.95355" />
    <path
       id="rect897"
       transform="scale(0.26458333)"
       style="fill:none;fill-opacity:0.63636361;stroke-width:0.99999994"
       d="m 387.61523,428.48242 c -1.01432,0 -1.83203,0.81576 -1.83203,1.83008 v 4.16797 c 0,0.0892 0.0132,0.17405 0.0254,0.25976 0.0163,-0.009 0.0323,-0.0177 0.0488,-0.0254 0.0382,-0.0189 0.0783,-0.0329 0.11719,-0.0488 0.0386,-0.0189 0.0759,-0.0334 0.11523,-0.0508 0.0113,-0.004 0.0258,-0.004 0.0371,-0.0117 0.0302,-0.0151 0.0584,-0.035 0.0879,-0.0527 0.0953,-0.0537 0.19244,-0.10535 0.29297,-0.14844 0.059,-0.0537 0.0512,-0.0555 0.1211,-0.0918 0.0189,-0.008 0.0346,-0.0177 0.0547,-0.0215 0.004,-0.001 0.01,0.006 0.0137,0.002 0.034,-0.0227 0.0508,-0.0628 0.0859,-0.082 0.0499,-0.051 0.0566,-0.0552 0.10157,-0.10546 0.0302,-0.034 0.0525,-0.0643 0.0918,-0.0957 0.007,-0.005 0.0149,-0.007 0.0234,-0.0117 0.0456,-0.0566 0.0868,-0.11773 0.13281,-0.17382 0.0111,-0.0147 0.0222,-0.033 0.0371,-0.0469 0.009,-0.0734 0.0362,-0.16207 0.0508,-0.20898 0.0495,-0.11074 -0.0256,0.0615 0.0273,-0.0742 0.001,-0.003 0.008,-0.004 0.008,-0.008 0.0113,-0.0805 0.006,-0.16471 0.0371,-0.24219 0.008,-0.0465 0.0273,-0.0989 0.0273,-0.14649 1.5e-4,-0.034 -0.008,-0.0699 -0.008,-0.10547 -0.002,-0.0975 0.008,-0.1305 0.0195,-0.23632 0.0113,-0.0507 0.0182,-0.10284 0.0371,-0.15235 0.0113,-0.0378 0.026,-0.0718 0.0449,-0.10547 0.001,-0.002 0.004,0.002 0.008,0.002 0.008,-0.0189 0.0159,-0.0346 0.0234,-0.0527 0.0189,-0.13228 -0.005,-0.2686 0.0215,-0.40039 0.0333,-0.15269 0.12329,-0.22288 0.19922,-0.2168 0.0759,0.006 0.13772,0.0894 0.11523,0.24415 l 0.006,-0.01 c -0.0265,0.17726 0.004,0.35607 -0.0625,0.52539 -0.0113,0.0302 -0.0329,0.0521 -0.0469,0.0801 -0.008,0.0113 -0.008,0.0258 -0.0117,0.0371 -0.008,0.0378 -0.0159,0.0731 -0.0234,0.10937 -0.0265,0.0847 -0.004,0.16534 -0.008,0.25 -9.1e-4,0.0782 -0.0142,0.14707 -0.0293,0.22266 -0.0302,0.0661 -0.0238,0.13944 -0.0352,0.20898 -0.0113,0.0635 -0.0336,0.12426 -0.0566,0.1836 -0.008,0.0431 -0.0335,0.0811 -0.041,0.125 -2.7e-4,0.002 1.7e-4,0.004 0.002,0.004 0.002,0 0.003,-0.003 0.004,-0.004 -0.008,0.034 -0.0159,0.0703 -0.0234,0.10547 -0.0835,0.0998 -0.1528,0.20881 -0.23633,0.30859 -0.0302,0.0189 -0.0619,0.0381 -0.0918,0.0566 -0.003,0.002 0.008,-0.002 0.0117,-0.004 0.0113,-0.008 0.035,-0.0289 0.0312,-0.0176 -0.0151,0.034 -0.13219,0.14315 -0.16015,0.17187 -0.0684,0.0745 -0.1024,0.0985 -0.19727,0.14649 -0.0151,0.008 -0.0729,0.0235 -0.0801,0.0488 -0.11792,0.0786 -0.24593,0.13788 -0.36914,0.20703 -0.0227,0.0151 -0.0469,0.0297 -0.0723,0.043 -0.0302,0.0151 -0.0631,0.022 -0.0937,0.0371 -0.0302,0.0151 -0.0608,0.0271 -0.0918,0.043 -0.0762,0.0298 -0.14917,0.0651 -0.22266,0.0996 0.23998,0.73106 0.91906,1.25977 1.73242,1.25977 1.01432,0 1.83008,-0.81576 1.83008,-1.83008 v -4.16797 c 0,-1.01432 -0.81576,-1.83008 -1.83008,-1.83008 z m -0.44531,5.29297 c 0.005,-7.7e-4 -0.002,0.0148 -0.006,0.0254 1.5e-4,0.0189 0.007,0.0686 0,0.0527 -0.008,-0.017 0.002,-0.0504 0.006,-0.0781 z"
       inkscape:export-xdpi="149.95355"
       inkscape:export-ydpi="149.95355" />
    <rect
       style="fill:none;fill-opacity:0.63636361;stroke-width:0.26458332"
       id="rect909"
       width="0.76839989"
       height="2.6058779"
       x="101.62089"
       y="115.03956"
       ry="0.38419995"
       inkscape:export-xdpi="149.95355"
       inkscape:export-ydpi="149.95355" />
    <rect
       style="fill:none;fill-opacity:0.63636361;stroke-width:0.26458332"
       id="rect911"
       width="1.5535041"
       height="2.2049735"
       x="100.75226"
       y="115.89983"
       ry="0.38419881"
       inkscape:export-xdpi="149.95355"
       inkscape:export-ydpi="149.95355" />
    <path
       style="fill:#ff9955;fill-opacity:0.63636361;stroke-width:0.01578363"
       d="m 311.62336,391.41971 c -0.0276,-0.0133 -0.0343,-0.0264 -0.0274,-0.0537 0.007,-0.0286 -0.006,-0.0502 -0.0643,-0.10368 -0.0404,-0.0372 -0.11274,-0.12084 -0.1608,-0.18595 -0.16995,-0.23023 -0.39477,-0.43419 -0.64113,-0.58161 -0.0602,-0.036 -0.0987,-0.0655 -0.0855,-0.0655 0.0132,0 0.1477,0.0359 0.29889,0.0797 0.57329,0.16625 0.8925,0.27221 1.03181,0.34248 0.0785,0.0396 0.22992,0.11263 0.33646,0.16227 l 0.19372,0.0903 -0.0832,0.007 c -0.0458,0.004 -0.10304,0.0199 -0.12725,0.0358 -0.0242,0.0159 -0.10397,0.049 -0.17723,0.0736 -0.13392,0.045 -0.30631,0.12659 -0.39431,0.18661 -0.0538,0.0367 -0.0508,0.0363 -0.0996,0.0128 z"
       id="path921"
       inkscape:connector-curvature="0"
       transform="scale(0.26458333)"
       inkscape:export-xdpi="149.95355"
       inkscape:export-ydpi="149.95355" />
  </g>
</svg>
